<svg width="141" height="40" viewBox="0 0 141 40" fill="none" xmlns="http://www.w3.org/2000/svg">
<g clip-path="url(#clip0_2393_1582)">
<path d="M9.85388 4.31697L11.8799 0L13.9686 4.31697L23.2267 23.4574H19.1504L17.6196 20.2354H6.43657L4.95457 23.4574H0.864258L9.85388 4.31697ZM16.0887 17.0412L11.9496 8.34452L7.92206 17.0412H16.0922H16.0887Z" fill="#2D2B70"/>
<path d="M24.0113 16.295C24.0113 15.1443 24.2275 14.1016 24.6599 13.1741C25.0923 12.2465 25.6921 11.455 26.4557 10.7959C27.2194 10.1368 28.126 9.63123 29.1756 9.27555C30.2252 8.91987 31.3655 8.74203 32.5895 8.74203C33.1125 8.74203 33.6286 8.77341 34.1412 8.83966C34.6538 8.90592 35.142 8.99658 35.6127 9.10817C36.0835 9.21975 36.5229 9.35923 36.9378 9.51964C37.3528 9.68004 37.7154 9.8544 38.0362 10.0392V3.12787H41.6663V23.4644H38.0362V22.1044C37.7189 22.3241 37.3423 22.5333 36.9099 22.7286C36.4775 22.9239 36.0103 23.0947 35.5116 23.2447C35.013 23.3946 34.4969 23.5097 33.9599 23.5934C33.4229 23.6771 32.8963 23.7224 32.3733 23.7224C31.1458 23.7224 30.023 23.5411 28.9943 23.1819C27.9656 22.8228 27.0869 22.3171 26.3511 21.6616C25.6153 21.006 25.04 20.2249 24.6285 19.3148C24.217 18.4047 24.0078 17.3969 24.0078 16.2915L24.0113 16.295ZM27.8227 16.295C27.8227 16.8738 27.9377 17.4213 28.1714 17.9374C28.405 18.4535 28.7397 18.9033 29.1756 19.2904C29.6115 19.6774 30.1415 19.9843 30.7587 20.2109C31.376 20.4376 32.0699 20.5492 32.837 20.5492C33.3287 20.5492 33.8169 20.5039 34.3086 20.4097C34.8002 20.3156 35.271 20.1831 35.7243 20.0122C36.1776 19.8413 36.6031 19.6321 37.0006 19.388C37.3981 19.1439 37.7433 18.8684 38.0362 18.5651V13.5507C37.6701 13.2578 37.2795 13.0067 36.8716 12.8044C36.4636 12.6022 36.0451 12.4313 35.6197 12.3023C35.1943 12.1733 34.7654 12.0756 34.333 12.0129C33.9006 11.9501 33.4787 11.9222 33.0707 11.9222C32.2373 11.9222 31.4945 12.0338 30.8459 12.2605C30.1973 12.4871 29.6499 12.794 29.2035 13.1845C28.7572 13.5751 28.4154 14.0389 28.1783 14.5689C27.9412 15.0989 27.8227 15.6778 27.8227 16.2985V16.295Z" fill="#2D2B70"/>
<path d="M44.359 16.295C44.359 15.1443 44.5752 14.1016 45.0076 13.1741C45.4399 12.2465 46.0397 11.455 46.8034 10.7959C47.567 10.1368 48.4737 9.63123 49.5233 9.27555C50.5729 8.91987 51.7132 8.74203 52.9371 8.74203C53.4602 8.74203 53.9763 8.77341 54.4888 8.83966C55.0014 8.90592 55.4896 8.99658 55.9604 9.10817C56.4311 9.21975 56.8705 9.35923 57.2855 9.51964C57.7004 9.68004 58.0631 9.8544 58.3839 10.0392V3.12787H62.0139V23.4644H58.3839V22.1044C58.0666 22.3241 57.69 22.5333 57.2576 22.7286C56.8252 22.9239 56.3579 23.0947 55.8593 23.2447C55.3606 23.3946 54.8445 23.5097 54.3075 23.5934C53.7705 23.6771 53.244 23.7224 52.7209 23.7224C51.4935 23.7224 50.3706 23.5411 49.342 23.1819C48.3133 22.8228 47.4345 22.3171 46.6988 21.6616C45.963 21.006 45.3876 20.2249 44.9762 19.3148C44.5647 18.4047 44.3555 17.3969 44.3555 16.2915L44.359 16.295ZM48.1703 16.295C48.1703 16.8738 48.2854 17.4213 48.519 17.9374C48.7526 18.4535 49.0874 18.9033 49.5233 19.2904C49.9592 19.6774 50.4892 19.9843 51.1064 20.2109C51.7236 20.4376 52.4175 20.5492 53.1847 20.5492C53.6764 20.5492 54.1646 20.5039 54.6562 20.4097C55.1479 20.3156 55.6187 20.1831 56.072 20.0122C56.5253 19.8413 56.9507 19.6321 57.3482 19.388C57.7458 19.1439 58.091 18.8684 58.3839 18.5651V13.5507C58.0177 13.2578 57.6272 13.0067 57.2192 12.8044C56.8112 12.6022 56.3928 12.4313 55.9674 12.3023C55.5419 12.1733 55.113 12.0756 54.6806 12.0129C54.2482 11.9501 53.8263 11.9222 53.4183 11.9222C52.5849 11.9222 51.8422 12.0338 51.1936 12.2605C50.545 12.4871 49.9975 12.794 49.5512 13.1845C49.1048 13.5751 48.7631 14.0389 48.526 14.5689C48.2889 15.0989 48.1703 15.6778 48.1703 16.2985V16.295Z" fill="#2D2B70"/>
<path d="M65.8218 8.98962H69.4379V16.0509C69.4379 16.7204 69.5111 17.3307 69.6576 17.8851C69.8041 18.4395 70.0551 18.9103 70.4108 19.3008C70.7665 19.6914 71.2407 19.9983 71.8335 20.2145C72.4263 20.4307 73.1621 20.5387 74.0478 20.5387C74.4663 20.5387 74.8882 20.4934 75.3171 20.4028C75.746 20.3121 76.1575 20.1866 76.548 20.0296C76.9386 19.8727 77.3047 19.6809 77.6464 19.4612C77.9882 19.2416 78.2776 19.001 78.5217 18.7394V8.98962H82.1517V23.4679H78.5217V22.23C77.6325 22.76 76.7363 23.1401 75.8367 23.3702C74.937 23.6004 74.0827 23.712 73.2737 23.712C71.9486 23.712 70.8153 23.5516 69.8703 23.2342C68.9253 22.9169 68.1547 22.4531 67.5549 21.8429C66.9551 21.2327 66.5158 20.4864 66.2368 19.6007C65.9578 18.715 65.8184 17.7038 65.8184 16.567V8.98962H65.8218Z" fill="#2D2B70"/>
<path d="M85.2627 16.2706C85.2627 15.207 85.458 14.2167 85.845 13.2961C86.2321 12.3755 86.8005 11.5805 87.5502 10.904C88.2999 10.2275 89.2135 9.70094 90.298 9.31737C91.3825 8.93379 92.6169 8.742 94.0047 8.742C94.608 8.742 95.2182 8.78036 95.832 8.85359C96.4457 8.92682 97.035 9.03143 97.6034 9.16743C98.1718 9.30342 98.7053 9.46034 99.2039 9.64515C99.7026 9.82997 100.135 10.0322 100.505 10.2519L98.8238 12.9858C98.0323 12.6196 97.2826 12.3476 96.5747 12.1768C95.8668 12.0059 95.152 11.9187 94.4232 11.9187C93.5898 11.9187 92.8401 12.0268 92.181 12.243C91.522 12.4592 90.9571 12.7626 90.4968 13.1496C90.0365 13.5367 89.6843 13.997 89.4437 14.5235C89.2031 15.0501 89.081 15.6255 89.081 16.2461C89.081 16.8668 89.21 17.4422 89.4681 17.9688C89.7261 18.4953 90.0888 18.9486 90.5595 19.3287C91.0303 19.7088 91.5987 20.0087 92.2647 20.2249C92.9307 20.4411 93.6735 20.5492 94.4894 20.5492C95.3891 20.5492 96.2365 20.4236 97.0315 20.1691C97.8266 19.9145 98.5693 19.5763 99.2563 19.1509L100.937 21.8847C100.505 22.1462 100.034 22.3903 99.5282 22.6135C99.0226 22.8367 98.4786 23.032 97.9033 23.1958C97.3279 23.3597 96.7212 23.4888 96.09 23.5829C95.4588 23.6771 94.7998 23.7224 94.1233 23.7224C92.7424 23.7224 91.5045 23.5341 90.4096 23.1575C89.3147 22.7809 88.3871 22.2613 87.6269 21.5953C86.8667 20.9293 86.2844 20.1412 85.8799 19.2346C85.4754 18.3279 85.2732 17.3376 85.2732 16.2671L85.2627 16.2706Z" fill="#2D2B70"/>
<path d="M106.393 11.7235H102.899V9.00362H106.393V4.50183H110.023V9.00013H113.518V11.72H110.023V23.4644H106.393V11.7235Z" fill="#2D2B70"/>
<path d="M118.026 7.02641C117.667 7.02641 117.343 6.97411 117.053 6.87298C116.764 6.77186 116.516 6.63238 116.31 6.45454C116.105 6.2767 115.948 6.07445 115.84 5.84081C115.732 5.60718 115.676 5.3596 115.676 5.09807C115.676 4.83654 115.732 4.5785 115.84 4.34487C115.948 4.11124 116.108 3.90899 116.31 3.73812C116.513 3.56725 116.76 3.43126 117.053 3.32665C117.346 3.22204 117.667 3.17322 118.026 3.17322C118.385 3.17322 118.723 3.22552 119.013 3.32665C119.302 3.42777 119.55 3.56725 119.756 3.73812C119.961 3.90899 120.118 4.11124 120.226 4.34487C120.334 4.5785 120.39 4.82957 120.39 5.09807C120.39 5.36657 120.334 5.60718 120.226 5.84081C120.118 6.07445 119.958 6.2767 119.756 6.45454C119.553 6.63238 119.306 6.76837 119.013 6.87298C118.72 6.97759 118.392 7.02641 118.026 7.02641ZM116.213 9.00009H119.843V23.4644H116.213V9.00009Z" fill="#2D2B70"/>
<path d="M122.988 16.2323C122.988 15.1931 123.198 14.2202 123.619 13.3136C124.041 12.407 124.641 11.6119 125.422 10.9354C126.203 10.2589 127.148 9.72194 128.254 9.3279C129.359 8.93386 130.604 8.73859 131.988 8.73859C133.373 8.73859 134.614 8.93386 135.723 9.3279C136.832 9.72194 137.773 10.2555 138.554 10.9354C139.336 11.6154 139.935 12.407 140.357 13.3136C140.779 14.2202 140.988 15.1931 140.988 16.2323C140.988 17.2714 140.779 18.2443 140.357 19.1509C139.935 20.0576 139.336 20.8526 138.554 21.5291C137.773 22.2056 136.828 22.7426 135.723 23.1366C134.618 23.5307 133.373 23.7259 131.988 23.7259C130.604 23.7259 129.363 23.5307 128.254 23.1366C127.145 22.7426 126.203 22.2091 125.422 21.5291C124.641 20.8491 124.041 20.0576 123.619 19.1509C123.198 18.2443 122.988 17.2714 122.988 16.2323ZM126.8 16.2323C126.8 16.8111 126.915 17.3621 127.148 17.8816C127.382 18.4012 127.72 18.858 128.167 19.2555C128.613 19.6531 129.157 19.9669 129.799 20.2005C130.44 20.4342 131.169 20.5492 131.988 20.5492C132.808 20.5492 133.537 20.4342 134.178 20.2005C134.82 19.9669 135.364 19.6531 135.81 19.2555C136.257 18.858 136.595 18.4012 136.828 17.8816C137.062 17.3621 137.177 16.8146 137.177 16.2323C137.177 15.6499 137.062 15.099 136.828 14.5759C136.595 14.0529 136.257 13.5926 135.81 13.195C135.364 12.7975 134.82 12.4837 134.178 12.2501C133.537 12.0164 132.808 11.9013 131.988 11.9013C131.169 11.9013 130.44 12.0164 129.799 12.2501C129.157 12.4837 128.613 12.7975 128.167 13.195C127.72 13.5926 127.382 14.0529 127.148 14.5759C126.915 15.099 126.8 15.6499 126.8 16.2323Z" fill="#2D2B70"/>
<path d="M20.4307 27.2687C20.4481 27.4954 20.4585 27.7255 20.4585 27.9557C20.4585 32.597 16.6821 36.3734 12.0408 36.3734C7.39953 36.3734 3.62305 32.597 3.62305 27.9557C3.62305 27.7221 3.63351 27.4954 3.65095 27.2687H0.0209223C0.00697411 27.4954 0 27.7255 0 27.9557C0 34.6055 5.39099 40 12.0443 40C18.6976 40 24.0886 34.609 24.0886 27.9557C24.0886 27.7255 24.0816 27.4954 24.0676 27.2687H20.4341H20.4307Z" fill="#F15A31"/>
</g>
<defs>
<clipPath id="clip0_2393_1582">
<rect width="140.985" height="40" fill="white"/>
</clipPath>
</defs>
</svg>
